<?xml version="1.0"?>
<svg width="512" height="512" xmlns="http://www.w3.org/2000/svg" xmlns:svg="http://www.w3.org/2000/svg">
 <defs>
  <clipPath id="clip0_15796_42240">
   <rect fill="white" height="56" id="svg_1" width="174"/>
  </clipPath>
 </defs>
 <g class="layer">
  <title>Layer 1</title>
  <g id="svg_25">
   <path d="m314.04,101.35l-309.35,0l0,309.3l309.35,0l0,-309.3z" fill="#002364" id="svg_3"/>
   <path d="m55.65,138.56c-0.72,-0.33 -0.55,-1.28 0.22,-1.28l57.12,0c3.16,0 5.27,3.6 3.55,6.66l-2.94,5.05l-35.05,0l-22.9,-10.43m-23.57,44.31c-0.61,0.44 -0.11,1.33 0.55,1.16l103.43,-28.06c0.44,-0.11 0.94,-0.55 0.94,-1.22c0,-0.78 -0.67,-1.33 -1.33,-1.33l-57.12,0l-46.48,29.45l0,0zm17.58,1.16l37.55,-0.67c3.6,-0.11 7.88,-2.22 9.82,-5.55l4.49,-7.82l-51.85,14.03l0,0z" fill="white" id="svg_4"/>
   <path d="m105.62,308.55l-14.09,10.59c-4.38,-5.55 -11.81,-9.54 -18.52,-9.54c-12.76,0 -23.24,10.76 -23.24,24.01c0,13.25 10.48,23.85 23.24,23.85c6.88,0 14.03,-3.83 18.52,-9.54l14.09,10.59c-7.6,9.87 -19.36,16.08 -32.61,16.08c-22.68,0 -40.98,-18.47 -40.98,-40.98c0,-22.57 18.3,-41.15 40.98,-41.15c13.25,0 25.01,6.27 32.61,16.08m68.55,33.72l-36.88,-47.53l-15.53,0l0,77.64l17.14,0l0,-47.36l36.83,47.36l15.64,0l0,-77.64l-17.25,0l0,47.53l0.06,0zm42.93,-47.53l0,77.59l17.25,0l0,-18.58l22.9,0c16.19,0 29.45,-13.09 29.45,-29.39c0,-16.36 -13.25,-29.62 -29.45,-29.62l-40.15,0zm51.58,29.62c0,6.77 -5.55,12.31 -12.31,12.31l-22.02,0l0,-24.68l22.02,0c6.77,0 12.31,5.44 12.31,12.37z" fill="white" id="svg_5"/>
   <path d="m352.69,256.03l-38.66,0l0,154.62l38.66,0l0,-154.62z" fill="#D70064" id="svg_6"/>
   <path d="m159.36,244.94c40.32,-51.8 103.27,-85.02 173.92,-85.02c70.66,0 133.66,33.22 174.03,85.02l-51.13,0c-32.5,-29.39 -75.59,-47.42 -122.9,-47.42c-47.31,0 -90.4,18.02 -122.73,47.42l-51.19,0z" fill="#39A8E5" id="svg_7"/>
  </g>
 </g>
</svg>